<svg width="140" height="20" viewBox="0 0 140 20" fill="none" xmlns="http://www.w3.org/2000/svg">
<path d="M0 0.269982H4.59L9.747 14.715L14.931 0.269982H19.332L11.826 19.17H7.425L0 0.269982ZM21.4061 0.269982H35.7971V3.69898H25.6721V7.96498H34.7711V11.394H25.6721V15.741H36.0941V19.17H21.4061V0.269982ZM47.6493 0.269982C50.1153 0.269982 52.0233 0.845982 53.3733 1.99798C54.7413 3.13198 55.4253 4.73398 55.4253 6.80398C55.4253 8.98198 54.7413 10.683 53.3733 11.907C52.0233 13.113 50.1153 13.716 47.6493 13.716H43.7073V19.17H39.4413V0.269982H47.6493ZM47.6493 10.26C48.8193 10.26 49.7283 9.98998 50.3763 9.44998C51.0423 8.89198 51.3753 8.05498 51.3753 6.93898C51.3753 5.85898 51.0423 5.04898 50.3763 4.50898C49.7283 3.96898 48.8193 3.69898 47.6493 3.69898H43.7073V10.26H47.6493ZM47.1363 12.123H51.2943L55.8843 19.17H51.0513L47.1363 12.123ZM66.9714 0.269982C68.4474 0.269982 69.7884 0.503982 70.9944 0.971982C72.2184 1.42198 73.2714 2.06998 74.1534 2.91598C75.0354 3.74398 75.7194 4.73398 76.2054 5.88598C76.6914 7.03798 76.9344 8.31598 76.9344 9.71998C76.9344 11.106 76.6914 12.375 76.2054 13.527C75.7194 14.679 75.0264 15.678 74.1264 16.524C73.2264 17.37 72.1554 18.027 70.9134 18.495C69.6894 18.945 68.3304 19.17 66.8364 19.17H58.9794V0.269982H66.9714ZM67.0794 15.687C67.8894 15.687 68.6274 15.543 69.2934 15.255C69.9594 14.967 70.5354 14.562 71.0214 14.04C71.5254 13.5 71.9124 12.87 72.1824 12.15C72.4524 11.43 72.5874 10.629 72.5874 9.74698C72.5874 8.86498 72.4434 8.06398 72.1554 7.34398C71.8674 6.60598 71.4714 5.96698 70.9674 5.42698C70.4634 4.86898 69.8604 4.44598 69.1584 4.15798C68.4744 3.86998 67.7184 3.72598 66.8904 3.72598H63.2454V15.687H67.0794ZM79.7304 0.269982H83.9964V19.17H79.7304V0.269982ZM101.883 6.04798C101.253 5.27398 100.497 4.67098 99.6152 4.23898C98.7332 3.78898 97.8512 3.56398 96.9692 3.56398C96.1592 3.56398 95.4032 3.71698 94.7012 4.02298C94.0172 4.32898 93.4052 4.76098 92.8652 5.31898C92.3432 5.85898 91.9382 6.49798 91.6502 7.23598C91.3622 7.97398 91.2182 8.77498 91.2182 9.63898C91.2182 10.485 91.3622 11.277 91.6502 12.015C91.9382 12.753 92.3432 13.401 92.8652 13.959C93.4052 14.499 94.0172 14.931 94.7012 15.255C95.4032 15.561 96.1592 15.714 96.9692 15.714C97.8332 15.714 98.6972 15.516 99.5612 15.12C100.425 14.706 101.199 14.157 101.883 13.473L104.394 16.092C103.728 16.776 102.972 17.37 102.126 17.874C101.298 18.378 100.425 18.774 99.5072 19.062C98.5892 19.332 97.6712 19.467 96.7532 19.467C95.3312 19.467 94.0172 19.224 92.8112 18.738C91.6232 18.234 90.5792 17.541 89.6792 16.659C88.7972 15.759 88.1042 14.715 87.6002 13.527C87.0962 12.339 86.8442 11.052 86.8442 9.66598C86.8442 8.29798 87.0962 7.02898 87.6002 5.85898C88.1042 4.68898 88.8152 3.66298 89.7332 2.78098C90.6512 1.89898 91.7132 1.21498 92.9192 0.728982C94.1432 0.242982 95.4752 -1.81198e-05 96.9152 -1.81198e-05C97.8332 -1.81198e-05 98.7422 0.125982 99.6422 0.377982C100.56 0.629982 101.415 0.989982 102.207 1.45798C103.017 1.90798 103.737 2.46598 104.367 3.13198L101.883 6.04798ZM105.078 0.269982H120.873V3.77998H115.095V19.17H110.829V3.77998H105.078V0.269982ZM127.099 11.394C127.099 12.78 127.486 13.878 128.26 14.688C129.034 15.48 130.051 15.876 131.311 15.876C132.535 15.876 133.516 15.48 134.254 14.688C135.01 13.878 135.388 12.78 135.388 11.394V0.269982H139.654V11.394C139.654 13.032 139.312 14.463 138.628 15.687C137.962 16.893 136.999 17.829 135.739 18.495C134.497 19.143 133.012 19.467 131.284 19.467C129.556 19.467 128.053 19.143 126.775 18.495C125.515 17.829 124.543 16.893 123.859 15.687C123.175 14.463 122.833 13.032 122.833 11.394V0.269982H127.099V11.394Z" fill="black"/>
</svg>
