<svg width="738" height="109" viewBox="0 0 738 109" fill="none" xmlns="http://www.w3.org/2000/svg">
<path d="M45.75 1.95001H70.05L114.75 106.95H89.55L57.15 25.65L24.6 106.95H-4.8832e-05L45.75 1.95001ZM25.5 67.5H87.45V85.95H25.5V67.5ZM171.418 1.95001C185.118 1.95001 195.718 5.15001 203.218 11.55C210.818 17.85 214.618 26.75 214.618 38.25C214.618 50.35 210.818 59.8 203.218 66.6C195.718 73.3 185.118 76.65 171.418 76.65H149.518V106.95H125.818V1.95001H171.418ZM171.418 57.45C177.918 57.45 182.968 55.95 186.568 52.95C190.268 49.85 192.118 45.2 192.118 39C192.118 33 190.268 28.5 186.568 25.5C182.968 22.5 177.918 21 171.418 21H149.518V57.45H171.418ZM168.568 67.8H191.668L217.168 106.95H190.318L168.568 67.8ZM224.013 1.95001H311.763V21.45H279.663V106.95H255.963V21.45H224.013V1.95001ZM324.451 1.95001H348.151V106.95H324.451V1.95001ZM447.523 34.05C444.023 29.75 439.823 26.4 434.923 24C430.023 21.5 425.123 20.25 420.223 20.25C415.723 20.25 411.523 21.1 407.623 22.8C403.823 24.5 400.423 26.9 397.423 30C394.523 33 392.273 36.55 390.673 40.65C389.073 44.75 388.273 49.2 388.273 54C388.273 58.7 389.073 63.1 390.673 67.2C392.273 71.3 394.523 74.9 397.423 78C400.423 81 403.823 83.4 407.623 85.2C411.523 86.9 415.723 87.75 420.223 87.75C425.023 87.75 429.823 86.65 434.623 84.45C439.423 82.15 443.723 79.1 447.523 75.3L461.473 89.85C457.773 93.65 453.573 96.95 448.873 99.75C444.273 102.55 439.423 104.75 434.323 106.35C429.223 107.85 424.123 108.6 419.023 108.6C411.123 108.6 403.823 107.25 397.123 104.55C390.523 101.75 384.723 97.9 379.723 93C374.823 88 370.973 82.2 368.173 75.6C365.373 69 363.973 61.85 363.973 54.15C363.973 46.55 365.373 39.5 368.173 33C370.973 26.5 374.923 20.8 380.023 15.9C385.123 11 391.023 7.20001 397.723 4.50001C404.523 1.80001 411.923 0.450006 419.923 0.450006C425.023 0.450006 430.073 1.15001 435.073 2.55001C440.173 3.95001 444.923 5.95001 449.323 8.55001C453.823 11.05 457.823 14.15 461.323 17.85L447.523 34.05ZM475.623 1.95001H499.323V87H544.173V106.95H475.623V1.95001ZM558.387 1.95001H638.337V21H582.087V44.7H632.637V63.75H582.087V87.9H639.987V106.95H558.387V1.95001ZM727.732 30.45C724.032 28.15 720.182 26.25 716.182 24.75C712.282 23.15 708.482 21.95 704.782 21.15C701.182 20.25 697.932 19.8 695.032 19.8C691.032 19.8 687.782 20.6 685.282 22.2C682.882 23.7 681.682 26 681.682 29.1C681.682 32 682.682 34.4 684.682 36.3C686.782 38.1 689.482 39.6 692.782 40.8C696.082 41.9 699.732 43.05 703.732 44.25C707.732 45.35 711.682 46.65 715.582 48.15C719.582 49.65 723.232 51.6 726.532 54C729.932 56.3 732.582 59.3 734.482 63C736.482 66.6 737.482 71.1 737.482 76.5C737.482 83.3 735.682 89.05 732.082 93.75C728.482 98.45 723.532 102.05 717.232 104.55C711.032 107.05 704.082 108.3 696.382 108.3C690.582 108.3 684.882 107.6 679.282 106.2C673.682 104.8 668.382 102.85 663.382 100.35C658.482 97.75 654.032 94.75 650.032 91.35L659.482 72.75C663.082 75.95 667.032 78.75 671.332 81.15C675.732 83.55 680.132 85.4 684.532 86.7C688.932 88 692.982 88.65 696.682 88.65C701.582 88.65 705.382 87.7 708.082 85.8C710.882 83.9 712.282 81.2 712.282 77.7C712.282 74.7 711.282 72.3 709.282 70.5C707.282 68.7 704.632 67.2 701.332 66C698.032 64.7 694.382 63.55 690.382 62.55C686.382 61.45 682.382 60.2 678.382 58.8C674.382 57.3 670.732 55.45 667.432 53.25C664.132 50.95 661.432 48.05 659.332 44.55C657.332 41.05 656.332 36.6 656.332 31.2C656.332 24.8 658.032 19.3 661.432 14.7C664.832 10 669.582 6.4 675.682 3.90001C681.782 1.3 688.882 3.33786e-06 696.982 3.33786e-06C704.382 3.33786e-06 711.582 1.1 718.582 3.30001C725.582 5.40001 731.682 8.15001 736.882 11.55L727.732 30.45Z" fill="black"/>
</svg>
