<svg width="2266" height="214" viewBox="0 0 2266 214" fill="none" xmlns="http://www.w3.org/2000/svg">
<path d="M-7.60853e-05 2.90001H45.8199V167.33H132.53V205.9H-7.60853e-05V2.90001ZM226.393 2.90001H273.373L359.793 205.9H311.073L248.433 48.72L185.503 205.9H137.942L226.393 2.90001ZM187.243 129.63H307.013V165.3H187.243V129.63ZM343.568 2.90001H392.868L442.168 177.48H431.728L480.738 2.90001H525.688L575.278 177.48H564.838L613.558 2.90001H660.828L592.098 205.9H544.828L496.978 39.44L507.708 39.73L458.988 205.9H412.008L343.568 2.90001ZM921.91 124.41C915.143 141.617 906.637 156.503 896.39 169.07C886.337 181.443 875.027 191.013 862.46 197.78C849.893 204.547 836.553 207.93 822.44 207.93C809.68 207.93 798.177 205.417 787.93 200.39C777.683 195.363 769.66 188.5 763.86 179.8C758.06 170.907 755.16 160.853 755.16 149.64C755.16 139.2 757.577 130.307 762.41 122.96C767.243 115.613 773.43 109.33 780.97 104.11C788.703 98.89 796.823 94.1534 805.33 89.9C814.03 85.6467 822.15 81.49 829.69 77.43C837.423 73.1767 843.707 68.6334 848.54 63.8C853.373 58.7734 855.79 52.78 855.79 45.82C855.79 40.02 853.953 35.38 850.28 31.9C846.607 28.2267 841.58 26.39 835.2 26.39C828.627 26.39 823.31 28.5167 819.25 32.77C815.383 36.83 813.45 42.05 813.45 48.43C813.45 55.1967 815.673 62.7367 820.12 71.05C824.567 79.17 831.527 88.6434 841 99.47C850.667 110.297 863.04 123.25 878.12 138.33C893.393 153.217 911.857 170.907 933.51 191.4L910.89 213.44C891.17 194.493 873.963 177.77 859.27 163.27C844.77 148.77 832.3 136.01 821.86 124.99C811.613 113.97 803.3 104.11 796.92 95.41C790.54 86.5167 785.9 78.3 783 70.76C780.1 63.22 778.65 55.8734 778.65 48.72C778.65 39.0534 780.97 30.6434 785.61 23.49C790.443 16.3367 797.017 10.8267 805.33 6.96001C813.643 2.90002 823.503 0.870019 834.91 0.870019C845.93 0.870019 855.597 2.80335 863.91 6.67001C872.223 10.5367 878.797 15.8533 883.63 22.62C888.463 29.1933 890.88 36.7333 890.88 45.24C890.88 54.9067 888.463 63.22 883.63 70.18C878.797 76.9467 872.61 82.8434 865.07 87.87C857.723 92.8967 849.797 97.5367 841.29 101.79C832.783 105.85 824.76 110.007 817.22 114.26C809.68 118.32 803.493 122.96 798.66 128.18C794.02 133.207 791.7 139.297 791.7 146.45C791.7 152.443 793.053 157.76 795.76 162.4C798.66 166.847 802.527 170.327 807.36 172.84C812.387 175.16 817.993 176.32 824.18 176.32C833.653 176.32 842.837 173.323 851.73 167.33C860.623 161.337 868.647 152.927 875.8 142.1C882.953 131.08 888.753 118.417 893.2 104.11L921.91 124.41ZM1182.99 64.96C1176.22 56.6467 1168.1 50.17 1158.63 45.53C1149.15 40.6967 1139.68 38.28 1130.21 38.28C1121.51 38.28 1113.39 39.9234 1105.85 43.21C1098.5 46.4967 1091.93 51.1367 1086.13 57.13C1080.52 62.93 1076.17 69.7934 1073.08 77.72C1069.98 85.6467 1068.44 94.25 1068.44 103.53C1068.44 112.617 1069.98 121.123 1073.08 129.05C1076.17 136.977 1080.52 143.937 1086.13 149.93C1091.93 155.73 1098.5 160.37 1105.85 163.85C1113.39 167.137 1121.51 168.78 1130.21 168.78C1139.49 168.78 1148.77 166.653 1158.05 162.4C1167.33 157.953 1175.64 152.057 1182.99 144.71L1209.96 172.84C1202.8 180.187 1194.68 186.567 1185.6 191.98C1176.7 197.393 1167.33 201.647 1157.47 204.74C1147.61 207.64 1137.75 209.09 1127.89 209.09C1112.61 209.09 1098.5 206.48 1085.55 201.26C1072.79 195.847 1061.57 188.403 1051.91 178.93C1042.43 169.263 1034.99 158.05 1029.58 145.29C1024.16 132.53 1021.46 118.707 1021.46 103.82C1021.46 89.1267 1024.16 75.4967 1029.58 62.93C1034.99 50.3633 1042.63 39.3433 1052.49 29.87C1062.35 20.3967 1073.75 13.05 1086.71 7.83002C1099.85 2.61001 1114.16 1.33514e-05 1129.63 1.33514e-05C1139.49 1.33514e-05 1149.25 1.35335 1158.92 4.06001C1168.78 6.76668 1177.96 10.6333 1186.47 15.66C1195.17 20.4933 1202.9 26.4867 1209.67 33.64L1182.99 64.96ZM1237.31 2.90001H1283.13V167.33H1369.84V205.9H1237.31V2.90001ZM1463.71 2.90001H1510.69L1597.11 205.9H1548.39L1485.75 48.72L1422.82 205.9H1375.26L1463.71 2.90001ZM1424.56 129.63H1544.33V165.3H1424.56V129.63ZM1706.67 2.90001C1733.15 2.90001 1753.65 9.08668 1768.15 21.46C1782.84 33.64 1790.19 50.8467 1790.19 73.08C1790.19 96.4734 1782.84 114.743 1768.15 127.89C1753.65 140.843 1733.15 147.32 1706.67 147.32H1664.33V205.9H1618.51V2.90001H1706.67ZM1706.67 110.2C1719.23 110.2 1729 107.3 1735.96 101.5C1743.11 95.5067 1746.69 86.5167 1746.69 74.53C1746.69 62.93 1743.11 54.23 1735.96 48.43C1729 42.63 1719.23 39.73 1706.67 39.73H1664.33V110.2H1706.67ZM1701.16 130.21H1745.82L1795.12 205.9H1743.21L1701.16 130.21ZM1828.36 2.90001H1874.18V205.9H1828.36V2.90001ZM1899.26 2.90001H2068.91V40.6H2006.85V205.9H1961.03V40.6H1899.26V2.90001ZM2070.24 2.90001H2116.35L2168.26 95.41L2219.01 2.90001H2265.12L2171.16 176.03H2165.07L2070.24 2.90001ZM2145.35 118.03H2191.17V205.9H2145.35V118.03Z" fill="black"/>
</svg>
